<svg width="97" height="28" viewBox="0 0 97 28" fill="none" xmlns="http://www.w3.org/2000/svg">
<path d="M11.9201 0.199999C14.2935 0.199999 16.3468 0.653332 18.0801 1.56C19.8135 2.44 21.2801 3.74666 22.4801 5.48L19.6001 8.24C18.5868 6.69333 17.4401 5.58667 16.1601 4.92C14.9068 4.22667 13.4135 3.88 11.6801 3.88C10.4001 3.88 9.34679 4.05333 8.52012 4.4C7.69346 4.74667 7.08012 5.21333 6.68012 5.8C6.30679 6.36 6.12012 7 6.12012 7.72C6.12012 8.54667 6.40012 9.26667 6.96012 9.88C7.54679 10.4933 8.62679 10.9733 10.2001 11.32L15.5601 12.52C18.1201 13.08 19.9335 13.9333 21.0001 15.08C22.0668 16.2267 22.6001 17.68 22.6001 19.44C22.6001 21.0667 22.1601 22.48 21.2801 23.68C20.4001 24.88 19.1735 25.8 17.6001 26.44C16.0535 27.08 14.2268 27.4 12.1201 27.4C10.2535 27.4 8.57346 27.16 7.08012 26.68C5.58679 26.2 4.28012 25.5467 3.16012 24.72C2.04012 23.8933 1.12012 22.9467 0.400122 21.88L3.36012 18.92C3.92012 19.8533 4.62679 20.6933 5.48012 21.44C6.33346 22.16 7.32012 22.72 8.44012 23.12C9.58679 23.52 10.8535 23.72 12.2401 23.72C13.4668 23.72 14.5201 23.5733 15.4001 23.28C16.3068 22.9867 16.9868 22.56 17.4401 22C17.9201 21.4133 18.1601 20.72 18.1601 19.92C18.1601 19.1467 17.8935 18.4667 17.3601 17.88C16.8535 17.2933 15.8935 16.84 14.4801 16.52L8.68012 15.2C7.08012 14.8533 5.76012 14.36 4.72012 13.72C3.68012 13.08 2.90679 12.3067 2.40012 11.4C1.89346 10.4667 1.64012 9.42667 1.64012 8.28C1.64012 6.78667 2.04012 5.44 2.84012 4.24C3.66679 3.01333 4.85346 2.04 6.40012 1.32C7.94679 0.573333 9.78679 0.199999 11.9201 0.199999ZM33.8242 1.12V21C33.8242 21.9867 34.0775 22.7067 34.5842 23.16C35.1175 23.6133 35.8242 23.84 36.7042 23.84C37.4242 23.84 38.0509 23.7333 38.5842 23.52C39.1175 23.28 39.6109 22.96 40.0642 22.56L41.0242 25.68C40.4109 26.2133 39.6509 26.64 38.7442 26.96C37.8642 27.2533 36.8775 27.4 35.7842 27.4C34.6375 27.4 33.5842 27.2133 32.6242 26.84C31.6642 26.4667 30.9175 25.8667 30.3842 25.04C29.8509 24.1867 29.5709 23.08 29.5442 21.72V2.32L33.8242 1.12ZM40.7042 7V10.36H25.7042V7H40.7042ZM56.6145 14.16C56.6145 12.8267 56.2412 11.8 55.4945 11.08C54.7745 10.3333 53.7745 9.96 52.4945 9.96C51.2945 9.96 50.2678 10.24 49.4145 10.8C48.5612 11.36 47.9345 12.2667 47.5345 13.52L43.9345 12C44.4412 10.3733 45.4278 9.06667 46.8945 8.08C48.3878 7.09333 50.3078 6.6 52.6545 6.6C54.2545 6.6 55.6678 6.86667 56.8945 7.4C58.1212 7.90667 59.0812 8.68 59.7745 9.72C60.4945 10.76 60.8545 12.0933 60.8545 13.72V22.64C60.8545 23.6267 61.3478 24.12 62.3345 24.12C62.8145 24.12 63.2812 24.0533 63.7345 23.92L63.4945 26.88C62.8812 27.1733 62.1078 27.32 61.1745 27.32C60.3212 27.32 59.5478 27.1733 58.8545 26.88C58.1878 26.56 57.6545 26.0933 57.2545 25.48C56.8812 24.84 56.6945 24.0533 56.6945 23.12V22.84L57.5745 22.8C57.3345 23.84 56.8412 24.7067 56.0945 25.4C55.3478 26.0667 54.4812 26.5733 53.4945 26.92C52.5078 27.24 51.5078 27.4 50.4945 27.4C49.2412 27.4 48.1078 27.2 47.0945 26.8C46.1078 26.4 45.3212 25.8 44.7345 25C44.1745 24.1733 43.8945 23.16 43.8945 21.96C43.8945 20.4667 44.3745 19.24 45.3345 18.28C46.3212 17.32 47.7078 16.6667 49.4945 16.32L57.2545 14.8L57.2145 17.8L51.5745 18.96C50.4545 19.1733 49.6145 19.48 49.0545 19.88C48.4945 20.28 48.2145 20.8667 48.2145 21.64C48.2145 22.3867 48.4945 22.9867 49.0545 23.44C49.6412 23.8667 50.4145 24.08 51.3745 24.08C52.0412 24.08 52.6812 24 53.2945 23.84C53.9345 23.68 54.5078 23.4267 55.0145 23.08C55.5212 22.7067 55.9078 22.24 56.1745 21.68C56.4678 21.0933 56.6145 20.4 56.6145 19.6V14.16ZM67.867 27V7H71.507L71.907 10.6C72.4403 9.29333 73.227 8.30667 74.267 7.64C75.3337 6.94666 76.6403 6.6 78.187 6.6C78.587 6.6 78.987 6.64 79.387 6.72C79.787 6.77333 80.1203 6.86667 80.387 7L79.787 10.76C79.4937 10.6533 79.1603 10.5733 78.787 10.52C78.4403 10.44 77.9603 10.4 77.347 10.4C76.5203 10.4 75.707 10.6267 74.907 11.08C74.107 11.5067 73.4403 12.16 72.907 13.04C72.4003 13.92 72.147 15.04 72.147 16.4V27H67.867ZM89.2929 1.12V21C89.2929 21.9867 89.5463 22.7067 90.0529 23.16C90.5863 23.6133 91.2929 23.84 92.1729 23.84C92.8929 23.84 93.5196 23.7333 94.0529 23.52C94.5863 23.28 95.0796 22.96 95.5329 22.56L96.4929 25.68C95.8796 26.2133 95.1196 26.64 94.2129 26.96C93.3329 27.2533 92.3463 27.4 91.2529 27.4C90.1063 27.4 89.0529 27.2133 88.0929 26.84C87.1329 26.4667 86.3863 25.8667 85.8529 25.04C85.3196 24.1867 85.0396 23.08 85.0129 21.72V2.32L89.2929 1.12ZM96.1729 7V10.36H81.1729V7H96.1729Z" fill="white"/>
</svg>
